<svg width="142" height="119" viewBox="0 0 142 119" fill="none" xmlns="http://www.w3.org/2000/svg">
<path d="M53.0528 118.748H23.6711C17.3931 118.748 11.3723 116.667 6.9331 112.962C2.49391 109.258 0 104.234 0 98.9949V74.3036C0 69.0647 2.49391 64.0404 6.9331 60.336C11.3723 56.6316 17.3931 54.5505 23.6711 54.5505H76.0847C79.2875 54.5517 82.4355 55.2429 85.2243 56.557C88.0131 57.8711 90.3482 59.7638 92.0035 62.0517L111.041 44.5949C112.616 43.1499 114.516 41.9781 116.634 41.1463C118.752 40.3146 121.045 39.8393 123.383 39.7475C125.721 39.6558 128.057 39.9495 130.259 40.6118C132.461 41.274 134.485 42.2919 136.215 43.6073C139.667 46.2538 141.736 49.9257 141.976 53.8326C142.217 57.7394 140.609 61.5687 137.499 64.4961L97.2585 102.21C91.7024 107.41 84.892 111.571 77.2738 114.421C69.6556 117.272 61.4016 118.746 53.0528 118.748ZM23.6711 64.427C20.5321 64.427 17.5217 65.4676 15.3021 67.3198C13.0825 69.172 11.8355 71.6841 11.8355 74.3036V98.9949C11.8355 101.614 13.0825 104.126 15.3021 105.979C17.5217 107.831 20.5321 108.871 23.6711 108.871H53.0528C59.7276 108.869 66.3264 107.69 72.4169 105.411C78.5074 103.132 83.9519 99.8044 88.3937 95.6468L128.664 57.9282C129.71 56.9455 130.251 55.6594 130.171 54.3469C130.091 53.0344 129.397 51.8005 128.238 50.911C127.059 50.0266 125.514 49.5607 123.93 49.6122C123.145 49.6399 122.374 49.7979 121.663 50.0768C120.952 50.3558 120.314 50.7501 119.787 51.2369L93.5954 75.2912C92.4455 77.9469 90.4531 80.2922 87.8309 82.0768C85.2086 83.8615 82.0549 85.0185 78.7063 85.4245L48.1647 89.069C46.6109 89.255 45.0322 88.9182 43.7759 88.1329C42.5197 87.3476 41.6887 86.1779 41.4658 84.8813C41.2429 83.5847 41.6464 82.2673 42.5875 81.219C43.5287 80.1706 44.9303 79.4772 46.4841 79.2912L77.0316 75.6517C78.7272 75.4539 80.2697 74.7264 81.3474 73.6161C82.425 72.5059 82.9575 71.0957 82.8373 69.6705C82.7171 68.2453 81.9531 66.9113 80.6997 65.938C79.4463 64.9647 77.7969 64.4246 76.0847 64.427H23.6711ZM65.0954 45.0394C62.4133 45.0454 59.8093 44.2856 57.716 42.8863C47.5848 36.1011 35.5066 25.9085 35.5066 16.032C35.3613 11.9745 37.1475 8.03416 40.4745 5.07277C43.8014 2.11138 48.3984 0.369997 53.2599 0.229492C57.6825 0.243867 61.9257 1.69032 65.0954 4.26406C68.2652 1.69032 72.5084 0.243867 76.931 0.229492C81.7925 0.369997 86.3895 2.11138 89.7164 5.07277C93.0434 8.03416 94.8296 11.9745 94.6843 16.032C94.6843 25.9085 82.6061 36.1011 72.469 42.8912C70.3764 44.2877 67.7749 45.0457 65.0954 45.0394ZM53.2599 10.106C51.5399 10.25 49.9563 10.9516 48.8497 12.0597C47.743 13.1679 47.2017 14.5942 47.3421 16.032C47.3421 20.4764 54.1535 27.8344 65.131 35.1875C76.0374 27.8344 82.8488 20.4764 82.8488 16.032C82.9892 14.5942 82.4479 13.1679 81.3412 12.0597C80.2346 10.9516 78.651 10.25 76.931 10.106C75.211 10.25 73.6274 10.9516 72.5208 12.0597C71.4141 13.1679 70.8728 14.5942 71.0132 16.032C71.0132 17.3417 70.3897 18.5977 69.2799 19.5238C68.1701 20.4499 66.6649 20.9702 65.0954 20.9702C63.526 20.9702 62.0208 20.4499 60.911 19.5238C59.8012 18.5977 59.1777 17.3417 59.1777 16.032C59.3181 14.5942 58.7768 13.1679 57.6701 12.0597C56.5635 10.9516 54.9799 10.25 53.2599 10.106Z" fill="white" fill-opacity="0.2"/>
</svg>
